<svg id="Layer_1" data-name="Layer 1" xmlns="http://www.w3.org/2000/svg" viewBox="0 0 512 512"><defs><style>.cls-1{fill:#2c3e50;}</style></defs><path class="cls-1" d="M183.29,338.06,46.1,278.41a7.7,7.7,0,0,1-4.64-7.07V243.91a7.71,7.71,0,0,1,4.65-7.08L183.3,177.45a10.1,10.1,0,0,1,14.11,9.27v21.89a10.11,10.11,0,0,1-6.49,9.44L88.64,257.15,191,297.76a10.1,10.1,0,0,1,6.37,9.39V328.8A10.09,10.09,0,0,1,183.29,338.06Z"/><path class="cls-1" d="M214.45,363.12l52.1-217.59a8.82,8.82,0,0,1,8.59-6.78H289.7a8.84,8.84,0,0,1,8.58,10.91L245.6,367.25A8.83,8.83,0,0,1,237,374H223A8.83,8.83,0,0,1,214.45,363.12Z"/><path class="cls-1" d="M315.35,336.45V304a5.19,5.19,0,0,1,3.28-4.83l105.65-41.53L318.65,216.54a5.17,5.17,0,0,1-3.3-4.83V179.54a5.18,5.18,0,0,1,7.24-4.76l143.56,62.08a8.79,8.79,0,0,1,5.3,8.08v25.69a8.8,8.8,0,0,1-5.28,8.07L322.6,341.2A5.18,5.18,0,0,1,315.35,336.45Z"/></svg>