<svg id="Layer_1" data-name="Layer 1" xmlns="http://www.w3.org/2000/svg" viewBox="0 0 512 512"><defs><style>.cls-1{fill:#3498db;}</style></defs><path class="cls-1" d="M182.53,338.06,45.34,278.41a7.71,7.71,0,0,1-4.63-7.07V243.91a7.7,7.7,0,0,1,4.64-7.08l137.2-59.38a10.1,10.1,0,0,1,14.11,9.27v21.89a10.12,10.12,0,0,1-6.5,9.44L87.88,257.15l102.4,40.61a10.11,10.11,0,0,1,6.38,9.39V328.8A10.1,10.1,0,0,1,182.53,338.06Z"/><path class="cls-1" d="M213.69,363.12,265.8,145.53a8.82,8.82,0,0,1,8.58-6.78h14.56a8.83,8.83,0,0,1,8.58,10.91L244.84,367.25a8.83,8.83,0,0,1-8.58,6.75h-14A8.83,8.83,0,0,1,213.69,363.12Z"/><path class="cls-1" d="M314.59,336.45V304a5.19,5.19,0,0,1,3.29-4.83l105.64-41.53L317.89,216.54a5.17,5.17,0,0,1-3.3-4.83V179.54a5.18,5.18,0,0,1,7.24-4.76l143.56,62.08a8.8,8.8,0,0,1,5.31,8.08v25.69a8.81,8.81,0,0,1-5.29,8.07L321.84,341.2A5.18,5.18,0,0,1,314.59,336.45Z"/></svg>